<svg width="41" height="42" viewBox="0 0 41 42" fill="none" xmlns="http://www.w3.org/2000/svg">
<path d="M19.3985 31.4664C18.1167 32.6897 15.9793 32.8959 14.4879 31.9371C12.9965 30.9784 12.2955 28.9509 12.8728 27.2739C11.2851 27.0918 9.64253 27.1365 8.77999 25.7894C7.91745 24.4423 8.41229 21.6107 9.98618 21.3255C8.44666 19.9956 7.81779 17.7035 8.46384 15.7722C9.10989 13.8409 10.993 12.3908 13.024 12.2602C11.5497 10.9475 11.6906 8.56947 12.8384 6.96467C14.4638 4.69319 18.0686 5.23615 19.4157 6.68288L19.3985 31.4664Z" stroke="white" stroke-width="1.5" stroke-linecap="round" stroke-linejoin="round"/>
<path d="M21.3335 31.4664C22.6153 32.6897 24.7527 32.8959 26.2441 31.9371C27.7355 30.9784 28.4366 28.9509 27.8592 27.2739C29.4469 27.0918 31.0895 27.1365 31.952 25.7894C32.8146 24.4423 32.3197 21.6107 30.7458 21.3255C32.2853 19.9956 32.9142 17.7035 32.2682 15.7722C31.6221 13.8409 29.739 12.3908 27.708 12.2602C29.1823 10.9475 29.0414 8.56947 27.8936 6.96467C26.2682 4.69319 22.6634 5.23615 21.3163 6.68288L21.3335 31.4664Z" stroke="white" stroke-width="1.5" stroke-linecap="round" stroke-linejoin="round"/>
<path d="M16.2097 18.6808V14.0244L7.83862 9.39211V4.66016" stroke="white" stroke-width="1.5" stroke-linecap="round" stroke-linejoin="round"/>
<path d="M7.83869 4.66322C8.85026 4.66322 9.67031 3.84318 9.67031 2.83161C9.67031 1.82004 8.85026 1 7.83869 1C6.82712 1 6.00708 1.82004 6.00708 2.83161C6.00708 3.84318 6.82712 4.66322 7.83869 4.66322Z" stroke="white" stroke-width="1.5" stroke-linecap="round" stroke-linejoin="round"/>
<path d="M33.9587 4.66322C34.9703 4.66322 35.7903 3.84318 35.7903 2.83161C35.7903 1.82004 34.9703 1 33.9587 1C32.9471 1 32.1271 1.82004 32.1271 2.83161C32.1271 3.84318 32.9471 4.66322 33.9587 4.66322Z" stroke="white" stroke-width="1.5" stroke-linecap="round" stroke-linejoin="round"/>
<path d="M38.1684 16.5871C39.18 16.5871 40 15.767 40 14.7554C40 13.7439 39.18 12.9238 38.1684 12.9238C37.1568 12.9238 36.3368 13.7439 36.3368 14.7554C36.3368 15.767 37.1568 16.5871 38.1684 16.5871Z" stroke="white" stroke-width="1.5" stroke-linecap="round" stroke-linejoin="round"/>
<path d="M2.83161 16.2394C3.84318 16.2394 4.66322 15.4194 4.66322 14.4078C4.66322 13.3962 3.84318 12.5762 2.83161 12.5762C1.82004 12.5762 1 13.3962 1 14.4078C1 15.4194 1.82004 16.2394 2.83161 16.2394Z" stroke="white" stroke-width="1.5" stroke-linecap="round" stroke-linejoin="round"/>
<path d="M7.83869 40.2648C8.85026 40.2648 9.67031 39.4447 9.67031 38.4332C9.67031 37.4216 8.85026 36.6016 7.83869 36.6016C6.82712 36.6016 6.00708 37.4216 6.00708 38.4332C6.00708 39.4447 6.82712 40.2648 7.83869 40.2648Z" stroke="white" stroke-width="1.5" stroke-linecap="round" stroke-linejoin="round"/>
<path d="M32.7595 40.2648C33.771 40.2648 34.5911 39.4447 34.5911 38.4332C34.5911 37.4216 33.771 36.6016 32.7595 36.6016C31.7479 36.6016 30.9279 37.4216 30.9279 38.4332C30.9279 39.4447 31.7479 40.2648 32.7595 40.2648Z" stroke="white" stroke-width="1.5" stroke-linecap="round" stroke-linejoin="round"/>
<path d="M15.1271 22.2363L2.83154 20.0611V16.2363" stroke="white" stroke-width="1.5" stroke-linecap="round" stroke-linejoin="round"/>
<path d="M16.2097 24.8184L7.83862 30.9936V36.6018" stroke="white" stroke-width="1.5" stroke-linecap="round" stroke-linejoin="round"/>
<path d="M24.1134 13.7014L33.9588 9.75981V4.66016" stroke="white" stroke-width="1.5" stroke-linecap="round" stroke-linejoin="round"/>
<path d="M25.8247 17.0071V21.4676L38.1683 21.1137V16.5879" stroke="white" stroke-width="1.5" stroke-linecap="round" stroke-linejoin="round"/>
<path d="M25.1958 25.3066L32.7594 30.9114V36.6022" stroke="white" stroke-width="1.5" stroke-linecap="round" stroke-linejoin="round"/>
</svg>
