<svg width="39" height="20" viewBox="0 0 39 20" fill="none" xmlns="http://www.w3.org/2000/svg">
<path d="M35.208 0.847656C34.9047 0.847656 34.6013 0.917663 34.3096 1.05768C30.4943 2.07277 26.7373 2.57448 23.2253 2.76116C23.1436 2.73782 23.0619 2.71449 22.9686 2.71449H16.0496C16.0496 2.71449 15.9796 2.71449 15.9446 2.71449C10.3208 2.37613 6.12042 1.41937 4.7203 1.06934C4.4286 0.92933 4.12524 0.847656 3.81021 0.847656C1.92004 0.847656 -0.00512695 3.79959 -0.00512695 9.45843C-0.00512695 9.80846 -0.00512695 10.1468 0.0182085 10.4852C0.00654075 10.5435 -0.00512695 10.6019 -0.00512695 10.6602C-0.00512695 10.7535 0.0182085 10.8469 0.0415439 10.9286C0.344904 15.619 2.08339 18.0692 3.81021 18.0692C4.19525 18.0692 4.58028 17.9525 4.95365 17.7192C8.08059 16.6691 11.6859 16.214 15.2912 16.0974V18.3842C15.2912 18.6642 15.4429 18.9093 15.6763 19.0493C15.9213 19.1893 16.213 19.1776 16.4463 19.0376L19.5033 17.1591L22.5602 19.0376C22.6769 19.1076 22.8169 19.1543 22.9569 19.1543C23.0853 19.1543 23.2136 19.1193 23.3303 19.0609C23.5753 18.9326 23.7153 18.6759 23.7153 18.3959V16.3774C28.8141 16.8207 33.0028 17.6375 34.4963 17.9525C34.7413 18.0459 34.963 18.0809 35.1847 18.0809C37.0865 18.0809 39 15.1289 39 9.47009C39 3.81125 37.0748 0.859324 35.1847 0.859324L35.208 0.847656ZM15.2912 14.5689C11.4992 14.6856 7.68389 15.1756 4.37026 16.2957C4.30026 16.319 4.24192 16.354 4.18358 16.389C4.04357 16.4824 3.92689 16.5291 3.82188 16.5291C3.04014 16.5291 1.95505 14.5805 1.62835 11.3953H15.3029V14.5455L15.2912 14.5689ZM15.2912 9.89013H1.52334C1.52334 9.75012 1.52334 9.59844 1.52334 9.45843C1.51168 5.12971 2.8768 2.36446 3.81021 2.36446C3.89189 2.36446 3.98523 2.38779 4.07857 2.44613C4.13691 2.48114 4.19525 2.4928 4.25359 2.51614C5.56037 2.8545 9.69074 3.81125 15.2796 4.19629V9.89013H15.2912ZM22.2102 17.0074L19.9117 15.5956C19.795 15.5256 19.655 15.479 19.5149 15.479C19.3749 15.479 19.2349 15.514 19.1182 15.5956L16.8197 17.0074V4.23129H22.2102V17.0074ZM36.6548 14.7322C36.1298 16.074 35.5464 16.5524 35.1963 16.5524C35.1613 16.5524 35.103 16.5524 35.0097 16.5057C34.963 16.4941 34.928 16.4824 34.8813 16.4707C33.3995 16.1557 29.0475 15.2923 23.727 14.8372V11.4303H37.4015C37.2732 12.6787 37.0165 13.8221 36.6548 14.7439V14.7322ZM37.4949 9.89013H23.727V4.24296C27.239 4.03294 30.9843 3.51956 34.7763 2.50447C34.8346 2.4928 34.893 2.46947 34.9397 2.44613C35.033 2.39946 35.1263 2.37613 35.208 2.37613C35.558 2.37613 36.1414 2.8545 36.6665 4.18462C37.2149 5.58475 37.5066 7.45158 37.5066 9.45843C37.5066 9.61011 37.5066 9.75012 37.5066 9.89013H37.4949Z" fill="white"/>
</svg>
